<svg width="16" height="17" viewBox="0 0 16 17" fill="none" xmlns="http://www.w3.org/2000/svg">
<rect y="1" width="16" height="16" fill="#FF0000"/>
<rect x="0.5" y="1.5" width="15" height="9" fill="#018CF4" stroke="black"/>
<rect x="0.5" y="10.5" width="15" height="6" fill="white" stroke="black"/>
<path d="M5.34836 3.09841L10.3675 4.44327L6.69322 8.1175L5.34836 3.09841Z" fill="white"/>
<path d="M8.53033 6.2804L10.6517 8.40172" stroke="white"/>
<rect width="1" height="1" transform="matrix(-1 0 0 1 3 12)" fill="black"/>
<rect width="1" height="1" transform="matrix(-1 0 0 1 5 12)" fill="black"/>
<rect width="1" height="1" transform="matrix(-1 0 0 1 7 12)" fill="black"/>
<rect width="1" height="1" transform="matrix(-1 0 0 1 9 12)" fill="black"/>
<rect width="1" height="1" transform="matrix(-1 0 0 1 11 12)" fill="black"/>
<rect width="1" height="1" transform="matrix(-1 0 0 1 13 12)" fill="black"/>
<rect width="1" height="1" transform="matrix(-1 0 0 1 4 14)" fill="black"/>
<rect width="1" height="1" transform="matrix(-1 0 0 1 6 14)" fill="black"/>
<rect width="1" height="1" transform="matrix(-1 0 0 1 8 14)" fill="black"/>
<rect width="1" height="1" transform="matrix(-1 0 0 1 10 14)" fill="black"/>
<rect width="1" height="1" transform="matrix(-1 0 0 1 12 14)" fill="black"/>
<rect width="1" height="1" transform="matrix(-1 0 0 1 14 14)" fill="black"/>
</svg>
